<mxfile host="app.diagrams.net" modified="2022-11-20T07:27:42.162Z" agent="5.0 (Macintosh; Intel Mac OS X 10_15_7) AppleWebKit/537.36 (KHTML, like Gecko) Chrome/107.0.0.0 Safari/537.36" etag="-inP3Lb4OpOs6EI-la_H" version="20.5.3" type="github">
  <diagram id="4wNCzE6D2qslsPTlwHBM" name="Page-1">
    <mxGraphModel dx="1426" dy="794" grid="1" gridSize="10" guides="1" tooltips="1" connect="1" arrows="1" fold="1" page="1" pageScale="1" pageWidth="850" pageHeight="1100" math="0" shadow="0">
      <root>
        <mxCell id="0" />
        <mxCell id="1" parent="0" />
        <mxCell id="xnZ_-viWnfDRhHtvkvKn-1" value="&lt;font style=&quot;font-size: 16px;&quot;&gt;Block 0&lt;/font&gt;" style="rounded=1;whiteSpace=wrap;html=1;fillColor=#f5f5f5;strokeColor=#666666;fontColor=#333333;" vertex="1" parent="1">
          <mxGeometry y="380" width="120" height="60" as="geometry" />
        </mxCell>
        <mxCell id="xnZ_-viWnfDRhHtvkvKn-2" value="&lt;span style=&quot;font-size: 16px;&quot;&gt;Block 1&lt;/span&gt;" style="rounded=1;whiteSpace=wrap;html=1;" vertex="1" parent="1">
          <mxGeometry x="190" y="450" width="120" height="60" as="geometry" />
        </mxCell>
        <mxCell id="xnZ_-viWnfDRhHtvkvKn-3" value="&lt;span style=&quot;font-size: 16px;&quot;&gt;Block 2&lt;/span&gt;" style="rounded=1;whiteSpace=wrap;html=1;fillColor=#f5f5f5;fontColor=#333333;strokeColor=#666666;" vertex="1" parent="1">
          <mxGeometry x="310" y="320" width="120" height="60" as="geometry" />
        </mxCell>
        <mxCell id="xnZ_-viWnfDRhHtvkvKn-4" value="&lt;span style=&quot;font-size: 16px;&quot;&gt;Block 4&lt;/span&gt;" style="rounded=1;whiteSpace=wrap;html=1;" vertex="1" parent="1">
          <mxGeometry x="440" y="540" width="120" height="60" as="geometry" />
        </mxCell>
        <mxCell id="xnZ_-viWnfDRhHtvkvKn-5" value="&lt;span style=&quot;font-size: 16px;&quot;&gt;Block 3&lt;/span&gt;" style="rounded=1;whiteSpace=wrap;html=1;" vertex="1" parent="1">
          <mxGeometry x="470" y="410" width="120" height="60" as="geometry" />
        </mxCell>
        <mxCell id="xnZ_-viWnfDRhHtvkvKn-6" value="&lt;span style=&quot;font-size: 16px;&quot;&gt;Block 5&lt;/span&gt;" style="rounded=1;whiteSpace=wrap;html=1;" vertex="1" parent="1">
          <mxGeometry x="760" y="410" width="120" height="60" as="geometry" />
        </mxCell>
        <mxCell id="xnZ_-viWnfDRhHtvkvKn-7" value="" style="endArrow=classic;html=1;rounded=0;fontSize=16;strokeWidth=1.5;exitX=0;exitY=0.5;exitDx=0;exitDy=0;entryX=1;entryY=0.5;entryDx=0;entryDy=0;" edge="1" parent="1" source="xnZ_-viWnfDRhHtvkvKn-3" target="xnZ_-viWnfDRhHtvkvKn-1">
          <mxGeometry width="50" height="50" relative="1" as="geometry">
            <mxPoint x="410" y="420" as="sourcePoint" />
            <mxPoint x="460" y="370" as="targetPoint" />
          </mxGeometry>
        </mxCell>
        <mxCell id="xnZ_-viWnfDRhHtvkvKn-8" value="" style="endArrow=classic;html=1;rounded=0;fontSize=16;strokeWidth=1.5;exitX=0;exitY=0.5;exitDx=0;exitDy=0;entryX=1;entryY=0.5;entryDx=0;entryDy=0;" edge="1" parent="1" source="xnZ_-viWnfDRhHtvkvKn-2" target="xnZ_-viWnfDRhHtvkvKn-1">
          <mxGeometry width="50" height="50" relative="1" as="geometry">
            <mxPoint x="320" y="360" as="sourcePoint" />
            <mxPoint x="130" y="420" as="targetPoint" />
          </mxGeometry>
        </mxCell>
        <mxCell id="xnZ_-viWnfDRhHtvkvKn-9" value="" style="endArrow=classic;html=1;rounded=0;fontSize=16;strokeWidth=1.5;exitX=0;exitY=0.5;exitDx=0;exitDy=0;entryX=1;entryY=0.5;entryDx=0;entryDy=0;" edge="1" parent="1" source="xnZ_-viWnfDRhHtvkvKn-5" target="xnZ_-viWnfDRhHtvkvKn-2">
          <mxGeometry width="50" height="50" relative="1" as="geometry">
            <mxPoint x="200" y="490" as="sourcePoint" />
            <mxPoint x="130" y="420" as="targetPoint" />
          </mxGeometry>
        </mxCell>
        <mxCell id="xnZ_-viWnfDRhHtvkvKn-10" value="" style="endArrow=classic;html=1;rounded=0;fontSize=16;strokeWidth=1.5;exitX=0;exitY=0.5;exitDx=0;exitDy=0;entryX=1;entryY=0.5;entryDx=0;entryDy=0;" edge="1" parent="1" source="xnZ_-viWnfDRhHtvkvKn-4" target="xnZ_-viWnfDRhHtvkvKn-2">
          <mxGeometry width="50" height="50" relative="1" as="geometry">
            <mxPoint x="480" y="450" as="sourcePoint" />
            <mxPoint x="320" y="490" as="targetPoint" />
          </mxGeometry>
        </mxCell>
        <mxCell id="xnZ_-viWnfDRhHtvkvKn-11" value="" style="endArrow=classic;html=1;rounded=0;fontSize=16;strokeWidth=1.5;exitX=0;exitY=0.5;exitDx=0;exitDy=0;entryX=1;entryY=0.5;entryDx=0;entryDy=0;" edge="1" parent="1" source="xnZ_-viWnfDRhHtvkvKn-6" target="xnZ_-viWnfDRhHtvkvKn-5">
          <mxGeometry width="50" height="50" relative="1" as="geometry">
            <mxPoint x="450" y="580" as="sourcePoint" />
            <mxPoint x="320" y="490" as="targetPoint" />
          </mxGeometry>
        </mxCell>
      </root>
    </mxGraphModel>
  </diagram>
</mxfile>
